<?xml version="1.0" encoding="utf-8" standalone="no"?>
<!DOCTYPE svg PUBLIC "-//W3C//DTD SVG 1.1//EN" "http://www.w3.org/Graphics/SVG/1.1/DTD/svg11.dtd">
<svg version="1.1" width="792pt" height="612pt" viewBox="0 0 792 612" overflow="visible" xmlns="http://www.w3.org/2000/svg">
  <path d="M571.6784,399.4472 L619.3503,399.4472 C622.2302,399.7391 625.4948,396.4745 625.2029,393.5946 L625.2029,380.8417" stroke="#000000" stroke-width="0.24" fill="none" />
  <path d="M180.7381,341.1814 L246.121,341.1814" stroke="#000000" stroke-width="0.24" fill="none" />
  <path d="M693.3126,341.1814 L674.5551,341.1814" stroke="#000000" stroke-width="0.24" fill="none" />
  <path d="M422.8345,430.0195 L773.9854,430.0195 L773.9854,225.1815 L422.8345,225.1815 z" stroke="#000000" stroke-width="0.24" fill="none" />
  <path d="M661.1484,305.6272 C661.2757,302.9749 658.2568,300.1093 655.6149,300.3744 C652.9698,300.141 649.9856,303.0427 650.1448,305.6932" stroke="#000000" stroke-width="0.24" fill="none" />
  <path d="M547.3671,341.1814 L524.0559,341.1814" stroke="#000000" stroke-width="0.24" fill="none" />
  <path d="M682.433,304.6974 L675.3734,304.6974 C674.9974,304.7076 674.5852,304.483 674.39,304.1617 C674.1775,303.8514 674.1426,303.3832 674.3067,303.0449 L674.6007,302.5084 L674.7534,302.2898 L674.9208,302.0796 L675.2806,301.6964 L675.6666,301.3461 L676.0812,301.0222 L679.5276,299.3243 L679.7451,299.1494 L679.9502,298.9737 L680.1429,298.7973 L680.3228,298.6208 L680.5225,298.4081 L680.6736,298.2324 L680.8119,298.0572 L680.9374,297.8828 L681.1439,297.5443 L681.2264,297.3748" stroke="#000000" stroke-width="0.24" fill="none" />
  <path d="M681.4358,296.6697 L681.4589,296.4837 L681.4702,296.2928 L681.4578,295.8909 L681.4349,295.6982 L681.4014,295.5129" stroke="#000000" stroke-width="0.24" fill="none" />
  <path d="M680.3559,293.8797 L680.2025,293.7707 L680.0384,293.6682 L679.8632,293.5722 L679.4917,293.4099 L679.2921,293.3432 L679.0825,293.2863 L678.8627,293.2393 L678.6324,293.2025 L678.3914,293.1761 L678.1396,293.1604 L677.4382,293.1769 L677.0255,293.237 L676.8295,293.2811 L676.64,293.3346 L676.4565,293.3973 L676.279,293.4692 L675.9337,293.6425 L675.616,293.8413 L675.3309,294.0615" stroke="#000000" stroke-width="0.24" fill="none" />
  <path d="M674.8489,294.5705 L674.6519,294.8521 L674.5004,295.1174" stroke="#000000" stroke-width="0.24" fill="none" />
  <path d="M14.80807,430.0195 L365.959,430.0195 L365.959,225.1815 L14.80807,225.1815 z" stroke="#000000" stroke-width="0.24" fill="none" />
  <path d="M113.8941,399.4472 L217.1765,399.4472" stroke="#000000" stroke-width="0.24" fill="none" />
  <path d="M251.8823,341.1814 L277.5045,341.1814" stroke="#000000" stroke-width="0.24" fill="none" />
  <path d="M232.9846,355.7478 L277.5045,355.7478" stroke="#000000" stroke-width="0.24" fill="none" />
  <path d="M134.9383,370.3143 L180.7381,370.3143" stroke="#000000" stroke-width="0.24" fill="none" />
  <path d="M625.2029,328.0674 L625.2029,380.8417 L687.4601,380.8417 C690.3399,381.1336 693.6046,377.869 693.3126,374.9892 L693.3126,274.2016 C693.6046,271.3218 690.3399,268.0571 687.4601,268.3491 L625.2029,268.3491 L625.2029,279.4448" stroke="#000000" stroke-width="0.24" fill="none" />
  <path d="M176.2916,355.7478 L227.2234,355.7478" stroke="#000000" stroke-width="0.24" fill="none" />
  <path d="M134.9383,355.7478 L170.5304,355.7478" stroke="#000000" stroke-width="0.24" fill="none" />
  <path d="M156.6529,341.1814 L174.9769,341.1814" stroke="#000000" stroke-width="0.24" fill="none" />
  <path d="M674.5551,341.1814 L674.5551,364.2925 C674.5596,364.6012 674.4178,364.9315 674.191,365.1409 C673.9705,365.3568 673.6334,365.4817 673.3254,365.4615 C667.7933,365.3126 661.3552,362.5813 656.935,357.9316 C652.5148,353.282 650.1127,346.7139 650.2438,341.1814" stroke="#000000" stroke-width="0.24" fill="none" />
  <path d="M547.3671,399.4472 L547.3671,376.336 C547.3625,376.0273 547.5043,375.697 547.7311,375.4876 C547.9517,375.2717 548.2888,375.1469 548.5968,375.167 C554.1289,375.3159 560.567,378.0472 564.9872,382.6969 C569.4073,387.3466 571.8095,393.9146 571.6784,399.4472" stroke="#000000" stroke-width="0.24" fill="none" />
  <path d="M161.0994,326.6149 L221.2947,326.6149" stroke="#000000" stroke-width="0.24" fill="none" />
  <path d="M227.0559,326.6149 L258.5957,326.6149" stroke="#000000" stroke-width="0.24" fill="none" />
  <path d="M661.1484,314.2056 L661.1484,305.6272 C660.9192,302.9545 663.9473,299.966 666.6167,300.2304 C669.2862,299.966 672.3142,302.9545 672.0851,305.6272 L672.0851,314.2056" stroke="#000000" stroke-width="0.24" fill="none" />
  <path d="M116.0295,326.6149 L155.3382,326.6149" stroke="#000000" stroke-width="0.24" fill="none" />
  <path d="M105.7471,312.0485 L136.2241,312.0485" stroke="#000000" stroke-width="0.24" fill="none" />
  <path d="M74.61028,312.0485 L99.98585,312.0485" stroke="#000000" stroke-width="0.24" fill="none" />
  <path d="M141.9853,312.0485 L157.4918,312.0485" stroke="#000000" stroke-width="0.24" fill="none" />
  <path d="M267.2108,268.3491 L322.3132,268.3491" stroke="#000000" stroke-width="0.24" fill="none" />
  <path d="M287.9612,297.482 L322.3132,297.482" stroke="#000000" stroke-width="0.24" fill="none" />
  <path d="M186.4993,370.3143 L247.6032,370.3143" stroke="#000000" stroke-width="0.24" fill="none" />
  <path d="M116.0295,297.482 L130.2213,297.482" stroke="#000000" stroke-width="0.24" fill="none" />
  <path d="M159.7535,268.3491 L261.4496,268.3491" stroke="#000000" stroke-width="0.24" fill="none" />
  <path d="M242.7926,282.9156 L277.5045,282.9156" stroke="#000000" stroke-width="0.24" fill="none" />
  <path d="M134.9383,282.9156 L237.0314,282.9156" stroke="#000000" stroke-width="0.24" fill="none" />
  <path d="M143.0791,268.3491 L153.9923,268.3491" stroke="#000000" stroke-width="0.24" fill="none" />
  <path d="M116.0295,268.3491 L137.3179,268.3491" stroke="#000000" stroke-width="0.24" fill="none" />
  <path d="M159.7535,253.7827 L217.0792,253.7827" stroke="#000000" stroke-width="0.24" fill="none" />
  <path d="M116.0295,253.7827 L153.9923,253.7827" stroke="#000000" stroke-width="0.24" fill="none" />
  <path d="M74.61028,253.7827 L110.2683,253.7827" stroke="#000000" stroke-width="0.24" fill="none" />
  <path d="M74.61028,414.0136 L166.0416,414.0136" stroke="#000000" stroke-width="0.24" fill="none" />
  <path d="M116.0295,384.8807 L258.5957,384.8807" stroke="#000000" stroke-width="0.24" fill="none" />
  <path d="M74.61028,239.2162 L100.1221,239.2162" stroke="#000000" stroke-width="0.24" fill="none" />
  <path d="M650.1009,300.6477 L650.1959,314.2056" stroke="#000000" stroke-width="0.24" fill="none" />
  <path d="M135.9825,297.482 L282.2,297.482" stroke="#000000" stroke-width="0.24" fill="none" />
  <path d="M74.61028,399.4472 L108.1329,399.4472" stroke="#000000" stroke-width="0.24" fill="none" />
  <path d="M625.2029,279.4448 L625.2029,268.3491 L529.9084,268.3491 C527.0286,268.0571 523.7639,271.3218 524.0559,274.2016 L524.0559,393.5946 C523.7639,396.4745 527.0286,399.7391 529.9084,399.4472 L547.3671,399.4472" stroke="#000000" stroke-width="0.24" fill="none" />
  <path d="M650.2438,341.1814 L571.6784,341.1814" stroke="#000000" stroke-width="0.24" fill="none" />
  <path d="M134.9383,341.1814 L150.8916,341.1814" stroke="#000000" stroke-width="0.24" fill="none" />
  <path d="M547.3671,341.1814 L547.3671,318.0702 C547.3625,317.7615 547.5043,317.4312 547.7311,317.2218 C547.9517,317.0059 548.2888,316.881 548.5968,316.9012 C554.1289,317.0501 560.567,319.7814 564.9872,324.4311 C569.4073,329.0807 571.8095,335.6488 571.6784,341.1814" stroke="#000000" stroke-width="0.24" fill="none" />
</svg>